<?xml version="1.0" encoding="UTF-8" standalone="no"?>
<!DOCTYPE svg PUBLIC "-//W3C//DTD SVG 1.1//EN" "http://www.w3.org/Graphics/SVG/1.1/DTD/svg11.dtd">
<svg width="100%" height="100%" viewBox="0 0 1080 1080" version="1.1" xmlns="http://www.w3.org/2000/svg" xmlns:xlink="http://www.w3.org/1999/xlink" xml:space="preserve" xmlns:serif="http://www.serif.com/" style="fill-rule:evenodd;clip-rule:evenodd;stroke-linejoin:round;stroke-miterlimit:2;">
    <g transform="matrix(1,0,0,1,-3540,0)">
        <rect id="logo" x="3540" y="0" width="1080" height="1080" style="fill:none;"/>
        <g id="logo1" serif:id="logo">
            <g transform="matrix(7.71486,0,0,7.71486,4149.6,-316.735)">
                <path d="M-44.2,87.9C-45.3,86.6 -47,85.4 -48.8,84.8C-51.1,84 -53.2,84.2 -54.6,85.3C-56,86.4 -56.7,88.4 -56.5,90.8C-56.3,92.7 -55.5,94.7 -54.5,96C-53.4,97.3 -51.7,98.5 -49.8,99.2C-48.9,99.5 -47.9,99.7 -47.1,99.7C-45.9,99.7 -44.8,99.4 -43.9,98.7C-40.7,96.2 -42,90.6 -44.2,87.9ZM-46.2,95.6C-46.5,95.8 -47.3,95.9 -48.5,95.5C-49.7,95.1 -50.9,94.3 -51.4,93.6C-52,92.8 -52.5,91.6 -52.6,90.4C-52.7,89.3 -52.5,88.5 -52.2,88.3C-52,88.2 -51.8,88.1 -51.4,88.1C-51,88.1 -50.5,88.2 -50,88.4C-48.9,88.8 -47.8,89.5 -47.1,90.3C-45.8,91.9 -45.4,95 -46.2,95.6Z" style="fill:white;fill-opacity:0.8;fill-rule:nonzero;"/>
                <path d="M-42.1,86.5C-41,86.9 -39.9,87.2 -38.9,87.2C-37.8,87.2 -36.7,86.9 -35.8,86.3C-32.2,84 -32.8,78.1 -34.8,75C-35.8,73.5 -37.5,72.1 -39.4,71.4C-41.7,70.4 -43.9,70.5 -45.6,71.6C-47.3,72.7 -48.2,74.6 -48.3,77.2C-48.4,78.7 -48.1,80.3 -47.6,81.6C-47.2,82.5 -46.7,83.3 -46,84C-44.9,85 -43.5,85.9 -42.1,86.5ZM-43.4,74.8C-43.2,74.6 -42.8,74.6 -42.5,74.6C-42,74.6 -41.4,74.7 -40.8,75C-39.6,75.5 -38.5,76.3 -38,77.2C-36.9,78.9 -36.6,82.4 -37.9,83.2C-38.5,83.6 -39.5,83.5 -40.7,83C-41.9,82.5 -43.1,81.6 -43.6,80.8C-44.1,80 -44.5,78.6 -44.4,77.3C-44.4,76 -44,75.1 -43.4,74.8Z" style="fill:white;fill-opacity:0.8;fill-rule:nonzero;"/>
                <path d="M-13.8,92.5C-13.4,92.6 -13,92.6 -12.6,92.6C-8.9,92.6 -5.7,88.7 -4.9,85.5C-4.1,82.1 -5.6,76.3 -9.7,75.3C-13.9,74.3 -17.9,78.7 -18.8,82.1C-19.6,85.6 -17.9,91.5 -13.8,92.5ZM-15,83C-14.6,81.2 -12.4,79 -10.9,79L-10.6,79C-9.1,79.4 -8.1,82.6 -8.6,84.6C-9.1,86.6 -11.4,89.1 -12.9,88.8C-14.3,88.4 -15.5,85.1 -15,83Z" style="fill:white;fill-opacity:0.8;fill-rule:nonzero;"/>
                <path d="M-24.9,84.6C-20.6,84.6 -17.4,79.2 -17.4,74.6C-17.4,72.1 -18.7,69.1 -20.7,67.2C-22.1,65.9 -23.6,65.2 -25.1,65.2C-26.8,65.2 -28.6,66.1 -30,67.6C-31.9,69.6 -33,72.3 -32.9,74.9C-32.7,79.3 -29,84.6 -24.9,84.6ZM-27.2,70.2C-26.4,69.4 -25.6,69 -24.9,69C-24.4,69 -23.8,69.3 -23.3,69.9C-22.1,71.1 -21.2,73.1 -21.2,74.6C-21.2,77.6 -23.4,80.7 -24.9,80.8C-26.4,80.8 -28.9,77.6 -29,74.8C-29,73.1 -28.3,71.4 -27.2,70.2Z" style="fill:white;fill-opacity:0.8;fill-rule:nonzero;"/>
                <path d="M-8.7,103.5C-8.4,99.2 -12.1,95.7 -14.7,94.3C-16.6,93.3 -18.9,91.9 -21,89.4C-23.7,86.2 -28,84.9 -30,85.3C-32.7,85.8 -36.1,88.1 -37.9,92.4C-39,95.1 -41.6,99.5 -42.9,101.6C-43.3,102.3 -43.7,103.1 -43.9,103.9C-44.1,104.5 -44.2,105.3 -44.3,107.1C-44.4,111.1 -43,114.2 -40.4,115.8C-39,116.6 -37.2,117 -35.5,117C-33.9,117 -32.5,116.7 -31.5,116.1L-31.3,116C-25.6,112.7 -24.1,112.4 -23.8,112.4C-23.3,112.4 -22.5,112.5 -21.6,112.5C-17.1,112.8 -15,112.8 -13.8,112.2C-9.7,110.1 -8.9,106.4 -8.7,103.5ZM-13,105.8C-13.6,107.6 -15.3,108.8 -17.2,108.7C-18.5,108.7 -20.2,108.6 -21.2,108.5C-22.2,108.4 -23.1,108.4 -23.7,108.4C-25.4,108.4 -28.2,109.6 -33.2,112.5L-33.4,112.6C-34.1,113 -36.8,113.2 -38.3,112.3C-40.2,111.1 -40.4,108.5 -40.4,107C-40.3,105.4 -39.8,103.9 -39,102.6C-37.6,100.3 -35.4,96.4 -34.3,93.8C-32.9,90.5 -30.3,89.4 -29.2,89.2C-28.6,89.1 -25.7,89.6 -23.9,91.8C-21.3,94.8 -18.7,96.5 -16.4,97.7C-14.7,98.6 -12.3,101 -12.5,103.2C-12.7,104.2 -12.8,105.1 -13,105.8Z" style="fill:white;fill-opacity:0.8;fill-rule:nonzero;"/>
                <path d="M-4.4,132C-2.6,131.6 -1.2,130 -0.5,127.6C-0,125.8 0.1,123.7 -0.3,122C-1.1,118.7 -4.9,114.4 -8.7,115.3C-12.5,116.2 -13.8,121.8 -13,125.1C-12.6,126.8 -11.5,128.6 -10,129.9C-8.5,131.3 -7.1,132.1 -5.6,132.1C-4.8,132.1 -4.8,132.1 -4.4,132ZM-9.2,124.3C-9.7,122.2 -8.7,119.4 -7.7,119.1L-7.5,119.1C-6.4,119.1 -4.4,121.1 -3.9,123C-3.7,124 -3.7,125.4 -4.1,126.5C-4.4,127.6 -4.9,128.2 -5.3,128.2C-5.7,128.3 -6.5,128 -7.3,127.2C-8.3,126.4 -9,125.2 -9.2,124.3Z" style="fill:white;fill-opacity:0.8;fill-rule:nonzero;"/>
                <path d="M7.3,124.2L8,124.2C12.4,123.7 14.1,117.9 13.6,114.3C13.3,112.5 12.3,110.6 10.9,109.1C9.2,107.3 7.2,106.4 5.2,106.7C1,107.3 -1,113 -0.5,116.4C0,119.7 3.3,123.9 7.3,124.2ZM5.9,110.5L6.1,110.5C6.7,110.5 7.5,111 8.3,111.7C9.2,112.6 9.8,113.9 10,114.9C10.3,116.9 9.1,120.2 7.6,120.4C6.1,120.6 3.7,118 3.4,115.9C3,113.9 4.3,110.7 5.9,110.5Z" style="fill:white;fill-opacity:0.8;fill-rule:nonzero;"/>
                <path d="M36.3,125.1C32.9,122.4 27.4,124.8 25.2,127.5C24.1,128.9 23.3,131 23.2,133.2C23.1,135.8 23.8,137.9 25.4,139.1C26.3,139.9 27.5,140.2 28.8,140.2C29.7,140.2 30.6,140 31.5,139.7C33.4,139.1 35.2,137.8 36.3,136.4C38.7,133.6 39.7,127.7 36.3,125.1ZM33.5,134C32.9,134.8 31.6,135.6 30.4,136C29.3,136.4 28.3,136.4 27.8,136C27.3,135.6 27,134.6 27.1,133.3C27.2,132 27.6,130.6 28.2,129.8C29.1,128.7 31.2,127.7 32.7,127.7C33.2,127.7 33.6,127.8 33.9,128C35.2,129 34.7,132.4 33.5,134Z" style="fill:white;fill-opacity:0.8;fill-rule:nonzero;"/>
                <path d="M18.7,127.2C19.4,127.5 20.1,127.6 20.9,127.6C24.3,127.6 28.1,124.6 29.7,121.2C30.8,118.9 30.8,115.6 29.8,113.1C29.1,111.3 28,110.1 26.6,109.4C25,108.7 23.1,108.7 21.1,109.5C18.6,110.5 16.5,112.5 15.4,115C13.8,119.1 14.9,125.5 18.7,127.2ZM19,116.5C19.6,115 21,113.7 22.5,113.1C23.1,112.9 23.6,112.8 24.1,112.8C24.4,112.8 24.7,112.9 25,113C25.4,113.2 25.8,113.7 26.1,114.5C26.7,116.1 26.7,118.3 26.1,119.7C24.8,122.5 21.6,124.4 20.2,123.8C18.8,123 17.9,119.1 19,116.5Z" style="fill:white;fill-opacity:0.8;fill-rule:nonzero;"/>
                <path d="M20.2,133.1C19.1,129.1 15.7,126.1 13.7,125.6C11.1,124.9 6.9,125.6 3.6,128.7C1.6,130.6 -2.3,133.2 -4.4,134.7C-5.8,135.6 -6.9,136.9 -7.7,138.3C-7.9,138.6 -8.1,139 -8.3,139.4C-10.1,143 -10.1,146.4 -8.3,149C-6.5,151.6 -2.7,153.2 -0.4,153L-0.1,153C6.4,152.3 7.9,152.7 8.2,152.9C8.6,153.1 9.4,153.5 10.2,153.9C14.1,156 16,156.9 17.3,156.9L17.4,156.9C22,156.7 24.2,153.7 25.6,151.1C27.6,147.3 25.7,142.6 24,140.3C22.5,138.5 21,136.3 20.2,133.1ZM22.1,149.2C20.9,151.4 19.7,152.5 18.1,152.9C17.5,153 16.8,152.9 16.2,152.7C14.9,152.2 12.9,151.1 11.9,150.5C11,150 10.2,149.6 9.7,149.4C8.8,149 7.5,148.8 5.6,148.8C4,148.8 2,148.9 -0.6,149.2L-0.9,149.2C-1.7,149.3 -4.2,148.4 -5.3,146.9C-6.6,145 -5.7,142.5 -5,141.2C-4.9,141.1 -4.9,140.9 -4.8,140.8C-4.1,139.6 -3.2,138.6 -2.1,137.8C0.1,136.3 3.9,133.6 6.1,131.6C7.9,130 9.7,129.4 11.1,129.3C12.1,129.2 13.1,129.6 13.8,130.3C14.7,131.1 15.9,132.5 16.4,134.2C17.5,138 19.2,140.6 20.8,142.6C22,144.2 23.1,147.3 22.1,149.2Z" style="fill:white;fill-opacity:0.8;fill-rule:nonzero;"/>
            </g>
        </g>
    </g>
</svg>
